# xmcd
#
# Track frame offsets:
# 150
# 13410
# 28788
# 43355
# 57121
# 75810
# 91176
# 104117
# 124589
# 143647
# 159640
# 176921
# 195107
# 205552
# 221722
# 237233
# 248434
# 268032
# 283485
# 302278
#
# Disc length: 4263 seconds
#
#
# Revision: 0
# Processed by: cddbd v1.5.2PL0 Copyright (c) Steve Scherf et al.
# Submitted via: FreeRIP 2.944 
#
DISCID=1410a514
DTITLE=Texas Lightning - Meanwhile, Back at the Golden Ranch
DYEAR=2006
DGENRE=Country
TTITLE0=Bad Case of Loving You
TTITLE1=Like A Virgin
TTITLE2=I Promise
TTITLE3=No No Never
TTITLE4=Kiss
TTITLE5=Enjoy the Silence
TTITLE6=C`est La Vie
TTITLE7=Over the Mountains
TTITLE8=Man in the  Mirror
TTITLE9=Dancing Queen
TTITLE10=Highway to Hell
TTITLE11=You`re the Voice
TTITLE12=Norwegian Wood
TTITLE13=Nothing Compares 2 U
TTITLE14=Out There Somewhere
TTITLE15=Raindrops Keep Falling on My Head
TTITLE16=Blue Bayou
TTITLE17=Smoke Smoke Smoke (that Cigarette)
TTITLE18=Walk on the Wild Side
TTITLE19=20 This is Me
EXTD=
EXTT0=
EXTT1=
EXTT2=
EXTT3=
EXTT4=
EXTT5=
EXTT6=
EXTT7=
EXTT8=
EXTT9=
EXTT10=
EXTT11=
EXTT12=
EXTT13=
EXTT14=
EXTT15=
EXTT16=
EXTT17=
EXTT18=
EXTT19=
PLAYORDER=
